<svg width="45" height="45" viewBox="0 0 45 45" fill="none" xmlns="http://www.w3.org/2000/svg">
<path d="M44.3155 22.1578C44.3155 34.3951 34.3951 44.3155 22.1578 44.3155C9.92036 44.3155 0 34.3951 0 22.1578C0 9.92036 9.92036 0 22.1578 0C34.3951 0 44.3155 9.92036 44.3155 22.1578Z" fill="#FB6E67"/>
<path d="M27.4042 32.7353C26.3336 32.7336 25.2858 32.426 24.3842 31.8487L24.3553 31.8305C19.6738 28.6727 15.6439 24.6432 12.4857 19.962C12.4804 19.9555 12.4622 19.9246 12.4558 19.9139C11.0403 17.694 11.3576 14.8278 13.2314 12.953L13.9044 12.28C14.3584 11.827 14.962 11.5781 15.604 11.5781C16.2471 11.5781 16.8496 11.8281 17.3036 12.2811L20.1367 15.1141C21.0714 16.0489 21.0736 17.5722 20.1399 18.5091C20.065 18.5835 20.0055 18.6719 19.9648 18.7693C19.9241 18.8667 19.903 18.9712 19.9027 19.0768C19.9024 19.1823 19.9229 19.2869 19.9631 19.3845C20.0032 19.4822 20.0622 19.5709 20.1367 19.6457L24.6705 24.1774C24.8211 24.328 25.023 24.4113 25.2366 24.4113C25.3418 24.4117 25.446 24.3913 25.5432 24.3511C25.6404 24.3109 25.7286 24.2519 25.8028 24.1774C26.2568 23.7234 26.8604 23.4744 27.5035 23.4744C28.1466 23.4744 28.7502 23.7244 29.2032 24.1774L32.0352 27.0104C32.4851 27.4616 32.7378 28.0728 32.7378 28.7101C32.7378 29.3473 32.4851 29.9585 32.0352 30.4097L31.3643 31.0816C30.8463 31.6055 30.2296 32.0213 29.5499 32.3052C28.8701 32.5891 28.1408 32.7353 27.4042 32.7353ZM15.604 13.1805C15.4987 13.1802 15.3944 13.2007 15.297 13.2409C15.1997 13.281 15.1112 13.34 15.0367 13.4145L14.3637 14.0875C13.7153 14.73 13.3072 15.5757 13.2078 16.4831C13.1084 17.3905 13.3238 18.3045 13.8178 19.0721C16.8589 23.5775 20.7381 27.456 25.2441 30.4962C25.8891 30.9088 26.6385 31.1286 27.4042 31.1297C28.465 31.1297 29.4692 30.711 30.2298 29.9493L30.9006 29.2773C30.9751 29.2029 31.0342 29.1146 31.0745 29.0173C31.1148 28.9201 31.1355 28.8159 31.1355 28.7106C31.1355 28.6053 31.1148 28.5011 31.0745 28.4039C31.0342 28.3066 30.9751 28.2183 30.9006 28.1439L28.0686 25.3108C27.9944 25.236 27.906 25.1767 27.8086 25.1364C27.7112 25.0961 27.6068 25.0755 27.5014 25.0758C27.2877 25.0758 27.0858 25.1591 26.9352 25.3097C26.4812 25.7638 25.8776 26.0127 25.2345 26.0127C24.9188 26.0135 24.6061 25.9518 24.3144 25.8312C24.0227 25.7105 23.7577 25.5333 23.5349 25.3097L19.0011 20.7781C18.7774 20.5554 18.6001 20.2904 18.4794 19.9987C18.3588 19.707 18.2972 19.3942 18.2982 19.0785C18.2982 18.4386 18.545 17.8372 18.9947 17.3842C18.999 17.3842 19.0011 17.3821 19.0033 17.3799C19.1533 17.2297 19.2376 17.0261 19.2376 16.8137C19.2376 16.6014 19.1533 16.3978 19.0033 16.2476L16.1702 13.4134C16.0959 13.3391 16.0076 13.2802 15.9104 13.2402C15.8133 13.2002 15.7091 13.1799 15.604 13.1805V13.1805Z" fill="white"/>
<path d="M25.1224 25.0823L26.6843 24.6918L27.8947 24.2233L31.6821 27.8936V29.5335L29.9251 31.2125L26.2157 32.0325L15.7514 23.7938C14.6582 21.9196 12.4404 18.0697 12.3154 17.6636C12.1905 17.2575 12.5757 15.3859 12.784 14.5009L15.4391 12.041C16.3762 12.8219 18.2972 14.4072 18.4846 14.5009C18.7189 14.618 19.9293 16.3751 19.9293 16.6484C19.9293 16.8671 19.4348 17.7547 19.1875 18.1712V19.6159C19.7862 20.3968 21.0382 22.0211 21.2569 22.271C21.4756 22.5209 22.6495 23.6767 23.2092 24.2233L25.1224 25.0823Z" fill="white"/>
</svg>
